<?xml version="1.0" encoding="UTF-8"?>
<svg version="1.1" xmlns="http://www.w3.org/2000/svg" width="512" height="512">
<path d="M0 0 C1.17715462 -0.00352835 1.17715462 -0.00352835 2.37809014 -0.00712797 C5.02968839 -0.01382908 7.68123776 -0.01335941 10.33284378 -0.01294994 C12.24435223 -0.01624787 14.15585998 -0.01997328 16.06736684 -0.02409142 C21.33740579 -0.03412752 26.60743335 -0.03783079 31.87748051 -0.04048073 C37.55451125 -0.04437897 43.23153292 -0.05395758 48.90855789 -0.0626936 C62.62640536 -0.08247073 76.34425357 -0.09252542 90.06211174 -0.10142139 C96.51756264 -0.1058019 102.97301273 -0.11116929 109.42846298 -0.11641026 C130.87961439 -0.13342314 152.33076447 -0.14794338 173.78192139 -0.155159 C175.16940151 -0.15563376 176.55688164 -0.15610964 177.94436176 -0.15658666 C178.63243347 -0.15682303 179.32050517 -0.15705941 180.02942753 -0.15730295 C183.5155964 -0.15850416 187.00176526 -0.15971961 190.48793411 -0.16094494 C191.52569867 -0.16130516 191.52569867 -0.16130516 192.58442817 -0.16167267 C215.02031544 -0.16956723 237.45614988 -0.19300228 259.89201408 -0.22550088 C283.6066972 -0.25978923 307.32134003 -0.27950804 331.03605008 -0.28280324 C343.96560927 -0.2849711 356.8950908 -0.29376022 369.82462692 -0.31926441 C380.83336476 -0.34092923 391.84200608 -0.34904261 402.85076281 -0.33929763 C408.46981569 -0.33474081 414.08866923 -0.33671938 419.70769501 -0.35605907 C424.8497643 -0.37360472 429.99148756 -0.37276316 435.13356009 -0.35716178 C436.99563258 -0.35477261 438.85772849 -0.35917663 440.71976504 -0.37099043 C443.24844424 -0.38604244 445.77588673 -0.37648389 448.30453491 -0.36076355 C449.02970456 -0.37098576 449.75487421 -0.38120796 450.50201869 -0.39173993 C455.97022109 -0.31740073 458.98712477 1.14131206 463.40394974 4.13422108 C466.96199861 7.97316855 468.53397014 10.91775328 468.51747513 16.14667225 C468.5173996 16.94727573 468.51732407 17.74787922 468.51724625 18.57274342 C468.51208496 19.43221073 468.50692368 20.29167805 468.50160599 21.17718983 C468.49948357 22.50258526 468.49948357 22.50258526 468.49731827 23.85475636 C468.49172043 26.67711235 468.47916835 29.49938905 468.46644974 32.32172108 C468.46143446 34.23513139 468.4568716 36.14854295 468.45277786 38.06195545 C468.44175171 42.75274122 468.42448857 47.4434677 468.40394974 52.13422108 C464.11394974 52.46422108 459.82394974 52.79422108 455.40394974 53.13422108 C454.78906693 51.79746326 454.17418411 50.46070545 453.54066849 49.08343983 C452.72460566 47.32937376 451.90818048 45.57547624 451.09144974 43.82172108 C450.68732864 42.94064686 450.28320755 42.05957264 449.86684036 41.1517992 C449.47045364 40.30424061 449.07406693 39.45668201 448.66566849 38.58343983 C448.30432816 37.80315418 447.94298782 37.02286854 447.57069778 36.21893787 C446.32868129 33.99973326 445.48885327 32.60372427 443.40394974 31.13422108 C438.47848556 30.49783367 435.01918724 31.85314549 430.54457474 33.83734608 C429.59889633 34.25593891 429.59889633 34.25593891 428.63411331 34.68298817 C427.31059734 35.27266294 425.98959191 35.86800196 424.67103958 36.46869373 C422.65339422 37.38447322 420.62547787 38.27384656 418.59535599 39.16156483 C417.3068981 39.73943929 416.01911243 40.31881543 414.73207474 40.89984608 C413.56579544 41.42352772 412.39951614 41.94720936 411.19789505 42.48676014 C408.30261527 44.19397335 407.34687027 44.95892265 406.40394974 48.13422108 C406.68040472 54.28898202 409.08666165 58.84168363 412.05238724 64.06000233 C413.42010299 66.59924509 414.37961092 68.69612243 414.54066849 71.59515858 C412.72213034 75.65718536 409.68885571 78.49012055 406.59144974 81.63422108 C405.33337331 82.93479139 404.07682562 84.23684248 402.82191849 85.54047108 C402.22693558 86.1529369 401.63195267 86.76540272 401.01893997 87.39642811 C399.22121712 89.27537944 399.22121712 89.27537944 397.13832474 92.09515858 C396.56598099 92.7680492 395.99363724 93.44093983 395.40394974 94.13422108 C389.41054946 94.38925939 384.0210479 91.49536832 378.58754349 89.19281483 C375.31721878 88.1053817 372.82328173 87.93368883 369.40394974 88.13422108 C365.45311495 94.49071639 362.79370092 101.23307811 360.09144974 108.19672108 C359.62416458 109.35494373 359.15687943 110.51316639 358.67543411 111.7064867 C358.02091263 113.38968006 358.02091263 113.38968006 357.35316849 115.10687733 C356.95444534 116.12016102 356.5557222 117.13344471 356.14491653 118.17743397 C355.28408199 121.61254672 355.4270679 123.74150899 356.40394974 127.13422108 C358.44887456 129.94604181 360.87861501 130.93647956 364.07191849 132.17718983 C365.27884354 132.65321644 365.27884354 132.65321644 366.51015091 133.13885975 C367.52697952 133.52920399 368.54380814 133.91954823 369.59144974 134.32172108 C372.82957474 135.57984608 376.06769974 136.83797108 379.40394974 138.13422108 C379.73394974 148.36422108 380.06394974 158.59422108 380.40394974 169.13422108 C371.02894974 173.44672108 371.02894974 173.44672108 368.07826614 174.78778553 C367.31175735 175.14574207 366.54524857 175.50369862 365.75551224 175.87250233 C364.96998978 176.23384266 364.18446732 176.59518299 363.37514114 176.96747303 C361.09858885 178.12265852 361.09858885 178.12265852 359.40394974 181.13422108 C358.87905913 186.05209553 360.06791842 189.30899889 362.14223099 193.73968983 C362.42366455 194.34557438 362.70509811 194.95145893 362.99505997 195.57570362 C363.58902949 196.8480177 364.18856238 198.11774793 364.79335403 199.3849535 C365.71589177 201.32055039 366.61872988 203.26443994 367.51918411 205.21039295 C370.48332699 212.36966118 370.48332699 212.36966118 375.40394974 218.13422108 C381.06844555 219.07830371 385.15506178 216.60597358 390.02894974 214.07172108 C391.5155057 213.29906957 393.00755417 212.53687184 394.50551224 211.78656483 C395.15858353 211.44617176 395.81165482 211.10577869 396.48451614 210.75507069 C398.88972503 209.97709483 400.06575371 210.22361184 402.40394974 211.13422108 C404.88441849 213.39203358 404.88441849 213.39203358 407.59144974 216.25922108 C412.19731765 221.0461704 417.01121962 225.23281386 422.40394974 229.13422108 C422.05671564 234.11124309 420.70082125 238.0185352 418.77894974 242.63422108 C416.67074722 247.76364166 416.67074722 247.76364166 416.02894974 253.19672108 C417.59494784 256.54226248 418.0134996 256.68279044 421.25941849 258.02093983 C422.47564896 258.52935413 422.47564896 258.52935413 423.71644974 259.04803944 C424.60332474 259.40647938 425.49019974 259.76491932 426.40394974 260.13422108 C427.32691849 260.51779774 428.24988724 260.9013744 429.20082474 261.29657459 C432.15566829 262.51524871 435.1216661 263.7024666 438.09144974 264.88422108 C439.09756302 265.29543201 440.1036763 265.70664295 441.14027786 266.13031483 C442.11803177 266.51832264 443.09578568 266.90633045 444.10316849 267.30609608 C444.97803909 267.65768787 445.8529097 268.00927967 446.75429153 268.37152576 C449.74143959 269.23136641 452.31099518 269.26664288 455.40394974 269.13422108 C458.55409198 263.97757519 460.73302671 258.91538734 462.65394974 253.19672108 C462.92207474 252.4174828 463.19019974 251.63824451 463.46644974 250.83539295 C464.11860278 248.93716177 464.7621833 247.03598895 465.40394974 245.13422108 C466.39394974 245.13422108 467.38394974 245.13422108 468.40394974 245.13422108 C468.40394974 262.95422108 468.40394974 280.77422108 468.40394974 299.13422108 C307.36394974 299.13422108 146.32394974 299.13422108 -19.59605026 299.13422108 C-19.67855026 251.92359608 -19.76105026 204.71297108 -19.84605026 156.07172108 C-19.88246628 141.15203114 -19.91888229 126.23234119 -19.95640182 110.86053944 C-19.97446823 92.67438221 -19.97446823 92.67438221 -19.97782516 84.16695118 C-19.98155933 78.21136143 -19.99624883 72.25592131 -20.01835251 66.30037403 C-20.0438027 59.43300782 -20.05539669 52.56578542 -20.04983006 45.69837168 C-20.04741888 42.18486329 -20.05125868 38.67167637 -20.07291079 35.15822685 C-20.09275033 31.39576512 -20.08803141 27.63411213 -20.07706833 23.87163258 C-20.08871899 22.77563519 -20.10036964 21.67963781 -20.11237335 20.55042839 C-20.06233835 14.17949654 -19.38456824 10.31848339 -15.59605026 5.13422108 C-10.56629079 0.47249279 -6.62792959 -0.01338719 0 0 Z M49.40394974 44.13422108 C42.63986237 50.82867813 37.1172693 57.87076621 32.40394974 66.13422108 C31.72912552 67.29824451 31.72912552 67.29824451 31.04066849 68.48578358 C20.81914083 87.40985026 17.63609256 112.16588611 23.09144974 133.00922108 C30.44252896 157.52995387 44.27823418 177.68227297 66.90175247 190.36395741 C76.64165704 195.55190658 87.41446023 199.79030518 98.40394974 201.13422108 C99.42230911 201.26699451 100.44066849 201.39976795 101.48988724 201.53656483 C124.77559939 203.90776435 148.05497538 197.63765087 166.65394974 183.32172108 C168.25899596 181.95091046 169.84177015 180.55368931 171.40394974 179.13422108 C172.75939896 177.91799061 172.75939896 177.91799061 174.14223099 176.67718983 C189.10090964 162.54610059 200.26560752 142.12944887 201.58095169 121.33612537 C202.20329226 92.11091294 196.47018237 69.36192893 176.40394974 47.13422108 C162.80603413 32.96084509 144.0905807 22.54171929 124.40394974 20.13422108 C123.38559036 20.00144764 122.36723099 19.8686742 121.31801224 19.73187733 C94.59809539 17.01097046 69.05650036 25.87273955 49.40394974 44.13422108 Z M240.61571121 41.44795704 C239.21568322 44.55157514 239.02358843 46.7168499 239.01576614 50.11444569 C239.00630966 51.295947 238.99685318 52.47744831 238.98711014 53.69475269 C238.99318283 54.9625507 238.99925552 56.2303487 239.00551224 57.53656483 C239.00264206 58.84702274 238.99977188 60.15748066 238.99681473 61.50764942 C238.99240064 64.27740595 238.99879143 67.04687152 239.01283646 69.81659412 C239.02991155 73.35510164 239.02009278 76.89292558 239.00211906 80.43140793 C238.98862738 83.82068063 238.99809439 87.20977274 239.00551224 90.59906483 C238.99943954 91.8648386 238.99336685 93.13061237 238.98711014 94.43474293 C238.99656662 95.6193964 239.0060231 96.80404987 239.01576614 98.02460194 C239.01815292 99.0620908 239.0205397 100.09957966 239.02299881 101.16850758 C239.48518117 104.76661006 240.42282204 107.09518127 242.40394974 110.13422108 C246.0145132 112.25556528 249.2682845 112.38668684 253.40004349 112.39301014 C255.17713699 112.40246662 255.17713699 112.40246662 256.99013138 112.41211414 C258.26106644 112.40806568 259.5320015 112.40401722 260.84144974 112.39984608 C262.15427933 112.40175953 263.46710892 112.40367298 264.81972122 112.40564442 C267.59361369 112.40858675 270.36737701 112.40432684 273.14125443 112.39496326 C276.68869687 112.38356913 280.23583662 112.39013339 283.78326797 112.40210819 C287.17768587 112.41109156 290.57202326 112.40479346 293.96644974 112.39984608 C295.2373848 112.40389454 296.50831985 112.407943 297.8177681 112.41211414 C299.0024971 112.40580982 300.1872261 112.3995055 301.40785599 112.39301014 C302.44756546 112.39141895 303.48727493 112.38982777 304.55849075 112.38818836 C307.64930408 112.11232233 309.69393377 111.65322322 312.40394974 110.13422108 C315.31159426 106.48307958 315.78172263 103.66155554 315.79213333 99.06219959 C315.80631805 97.2599165 315.80631805 97.2599165 315.82078934 95.42122364 C315.81471664 94.13155186 315.80864395 92.84188007 315.80238724 91.51312733 C315.80441021 90.16701061 315.80732351 88.82089497 315.81108475 87.47478199 C315.81549917 84.65794883 315.80910692 81.84140175 315.79506302 79.02460194 C315.77798766 75.42556424 315.78780671 71.82719861 315.80578041 68.22818565 C315.81665649 65.44937102 315.81315424 62.67071389 315.80539703 59.89189434 C315.80244009 57.92331344 315.81150538 55.95472627 315.82078934 53.98616505 C315.81133286 52.78149082 315.80187637 51.5768166 315.79213333 50.33563709 C315.78855316 48.75275646 315.78855316 48.75275646 315.78490067 47.13789845 C315.32594296 43.51916233 314.39897558 41.18817982 312.40394974 38.13422108 C308.79675327 36.01640206 305.53552821 35.87785433 301.40785599 35.85956287 C299.63076248 35.84526485 299.63076248 35.84526485 297.8177681 35.83067799 C296.54683304 35.83158939 295.27589798 35.8325008 293.96644974 35.83343983 C291.99720535 35.82701214 291.99720535 35.82701214 289.98817825 35.8204546 C287.21429267 35.81300926 284.44053442 35.81327178 281.66664505 35.81854725 C278.11910468 35.82434621 274.57208568 35.80739312 271.0246315 35.78420258 C267.63021589 35.76589781 264.23591442 35.76965089 260.84144974 35.77093983 C259.57051468 35.76173008 258.29957962 35.75252033 256.99013138 35.7430315 C255.80540237 35.74926029 254.62067337 35.75548908 253.40004349 35.76190662 C251.84047928 35.76096249 251.84047928 35.76096249 250.24940872 35.75999928 C245.80332269 36.34472825 243.34564983 37.91579001 240.61571121 41.44795704 Z M240.61571121 182.44795704 C239.21568322 185.55157514 239.02358843 187.7168499 239.01576614 191.11444569 C239.00630966 192.295947 238.99685318 193.47744831 238.98711014 194.69475269 C238.99318283 195.9625507 238.99925552 197.2303487 239.00551224 198.53656483 C239.00264206 199.84702274 238.99977188 201.15748066 238.99681473 202.50764942 C238.99240064 205.27740595 238.99879143 208.04687152 239.01283646 210.81659412 C239.02991155 214.35510164 239.02009278 217.89292558 239.00211906 221.43140793 C238.98862738 224.82068063 238.99809439 228.20977274 239.00551224 231.59906483 C238.99943954 232.8648386 238.99336685 234.13061237 238.98711014 235.43474293 C238.99656662 236.6193964 239.0060231 237.80404987 239.01576614 239.02460194 C239.01815292 240.0620908 239.0205397 241.09957966 239.02299881 242.16850758 C239.48518117 245.76661006 240.42282204 248.09518127 242.40394974 251.13422108 C246.00694946 253.24866936 249.26159809 253.39055725 253.38417435 253.40887928 C254.56567566 253.41841129 255.74717697 253.42794331 256.96448135 253.43776417 C258.23227936 253.43685276 259.50007736 253.43594135 260.80629349 253.43500233 C262.77198036 253.44143002 262.77198036 253.44143002 264.77737808 253.44798756 C267.54706755 253.45543372 270.31662951 253.45517017 273.08632278 253.44989491 C276.62479746 253.44410162 280.16274845 253.46103494 283.70113659 253.48423958 C287.09037702 253.50256676 290.47950384 253.49879069 293.86879349 253.49750233 C295.13456726 253.50671207 296.40034103 253.51592182 297.70447159 253.52541065 C298.88912506 253.51918186 300.07377853 253.51295307 301.2943306 253.50653553 C302.33181946 253.50716496 303.36930832 253.50779438 304.43823624 253.50844288 C308.04018113 253.05393967 310.3631773 252.11757769 313.40394974 250.13422108 C315.51839802 246.53122136 315.66028591 243.27657272 315.67860794 239.15399647 C315.68813995 237.97249516 315.69767197 236.79099384 315.70749283 235.57368946 C315.70658142 234.30589146 315.70567001 233.03809345 315.70473099 231.73187733 C315.71115868 229.76619045 315.71115868 229.76619045 315.71771622 227.76079273 C315.72516238 224.99110326 315.72489883 222.2215413 315.71962357 219.45184803 C315.71383029 215.91337336 315.7307636 212.37542236 315.75396824 208.83703423 C315.77229542 205.4477938 315.76851935 202.05866698 315.76723099 198.66937733 C315.77644073 197.40360355 315.78565048 196.13782978 315.79513931 194.83369923 C315.78579613 193.05671902 315.78579613 193.05671902 315.77626419 191.24384022 C315.77689362 190.20635136 315.77752304 189.1688625 315.77817154 188.09993458 C315.32366833 184.49798969 314.38730635 182.17499351 312.40394974 179.13422108 C308.79675327 177.01640206 305.53552821 176.87785433 301.40785599 176.85956287 C299.63076248 176.84526485 299.63076248 176.84526485 297.8177681 176.83067799 C296.54683304 176.83158939 295.27589798 176.8325008 293.96644974 176.83343983 C291.99720535 176.82701214 291.99720535 176.82701214 289.98817825 176.8204546 C287.21429267 176.81300926 284.44053442 176.81327178 281.66664505 176.81854725 C278.11910468 176.82434621 274.57208568 176.80739312 271.0246315 176.78420258 C267.63021589 176.76589781 264.23591442 176.76965089 260.84144974 176.77093983 C259.57051468 176.76173008 258.29957962 176.75252033 256.99013138 176.7430315 C255.80540237 176.74926029 254.62067337 176.75548908 253.40004349 176.76190662 C251.84047928 176.76096249 251.84047928 176.76096249 250.24940872 176.75999928 C245.80332269 177.34472825 243.34564983 178.91579001 240.61571121 182.44795704 Z M38.40394974 229.13422108 C37.96156734 233.11566264 37.74089281 235.26538786 40.21644974 238.50922108 C43.72157718 241.11303003 46.54402037 241.26169228 50.78026199 241.27466297 C52.45423302 241.28322819 52.45423302 241.28322819 54.16202164 241.29196644 C55.38702881 241.2930843 56.61203598 241.29420216 57.87416458 241.29535389 C59.16379608 241.30031879 60.45342758 241.3052837 61.78213882 241.31039906 C65.32143971 241.32351508 68.86072163 241.32996634 72.40004301 241.33440971 C74.61139652 241.33734145 76.82274486 241.34144643 79.03409576 241.34591389 C85.95337188 241.35958611 92.87263615 241.36925437 99.79192483 241.37311578 C107.7785508 241.37759739 115.7650057 241.39515112 123.75157964 241.42411637 C129.92576841 241.44573123 136.09990903 241.45581993 142.27413523 241.4571569 C145.96146956 241.45820498 149.64864301 241.46411344 153.3359375 241.48197651 C157.44904596 241.50151513 161.56179613 241.49716904 165.67494583 241.49066639 C167.5063839 241.50448856 167.5063839 241.50448856 169.37482071 241.51858997 C170.49644104 241.51302082 171.61806137 241.50745167 172.7736702 241.50171375 C174.23209367 241.50391359 174.23209367 241.50391359 175.71998024 241.50615788 C179.86125896 240.93227134 182.489886 239.04828482 185.40394974 236.13422108 C185.9043712 233.21884079 185.9043712 233.21884079 185.40394974 230.13422108 C183.17188543 227.28641489 181.85401975 226.28424442 178.40394974 225.13422108 C176.61379322 225.03954648 174.82029307 225.00360056 173.02763748 225.00050831 C171.9116568 224.99624332 170.79567612 224.99197834 169.64587784 224.98758411 C168.42087067 224.9880373 167.19586349 224.98849049 165.93373489 224.98895741 C164.64410339 224.98559879 163.35447189 224.98224018 162.02576065 224.97877979 C158.48645452 224.96993999 154.94717256 224.96760168 151.40785646 224.96696401 C148.45311934 224.96601458 145.49838785 224.96233587 142.54365289 224.95879191 C135.57195206 224.95064729 128.60026415 224.94820767 121.62855911 224.94891834 C114.43778134 224.94951904 107.24707861 224.93896893 100.05631983 224.92317468 C93.88213105 224.91009672 87.70796678 224.90473456 81.53376424 224.90537375 C77.84647 224.90562868 74.15924242 224.9027804 70.47196198 224.8921957 C66.35890706 224.88071134 62.24602014 224.8852631 58.13295364 224.89130116 C56.91199493 224.88568165 55.69103622 224.88006214 54.43307877 224.87427235 C53.31145844 224.87846684 52.1898381 224.88266132 51.03422928 224.88698292 C50.06194696 224.88643815 49.08966465 224.88589338 48.08791924 224.88533211 C44.0419125 225.26052506 41.28480931 226.25336151 38.40394974 229.13422108 Z M12.40394974 266.13422108 C10.98353153 268.97505749 11.08942702 270.98899385 11.40394974 274.13422108 C13.63601405 276.98202726 14.95387972 277.98419774 18.40394974 279.13422108 C20.87616191 279.23177043 23.32007394 279.27331432 25.79234695 279.26793385 C26.55092314 279.2701994 27.30949932 279.27246496 28.09106266 279.27479917 C30.64052345 279.28114439 33.18993114 279.28030947 35.73939896 279.27948475 C37.56421859 279.28247592 39.38903758 279.28587835 41.21385574 279.28966236 C46.17666883 279.29851096 51.13946469 279.30084084 56.10228491 279.30147815 C60.24252287 279.30242669 64.3827568 279.30610438 68.52299321 279.30965024 C78.28979199 279.31779811 88.05658154 279.32023418 97.82338333 279.31952381 C107.90432554 279.31892295 117.98521425 279.32947561 128.06614292 279.34526747 C136.71589405 279.35833543 145.36562768 279.36370802 154.01538861 279.3630684 C159.18379605 279.36281319 164.35215596 279.36567709 169.52055359 279.37624645 C174.38127333 279.38591488 179.24189999 279.38601523 184.10262299 279.37872982 C185.8872402 279.37768241 187.67186317 279.38005613 189.45647049 279.38609028 C191.89161877 279.39379111 194.32644407 279.38917812 196.76158524 279.38145924 C197.46869105 279.3866028 198.17579687 279.39174636 198.90433013 279.39704579 C203.69257745 279.36347931 207.26256809 278.61103601 211.21644974 275.88422108 C213.04595185 273.1881127 212.8574684 271.30885172 212.40394974 268.13422108 C210.17188543 265.28641489 208.85401975 264.28424442 205.40394974 263.13422108 C202.92146387 263.0345314 200.46696505 262.99076961 197.98431778 262.99377918 C197.22236361 262.99080806 196.46040944 262.98783694 195.67536575 262.98477578 C193.11442372 262.97608316 190.55352841 262.97458006 187.99257278 262.97308826 C186.15952326 262.9684605 184.32647471 262.96343589 182.49342728 262.9580431 C177.50782424 262.94491328 172.52223467 262.93847303 167.53661704 262.93403244 C164.42271413 262.93110271 161.30881492 262.92699809 158.19491386 262.92252827 C148.45485186 262.90885192 138.71479828 262.89918589 128.97472733 262.89532638 C117.72635363 262.89084488 106.4781014 262.87329327 95.22976464 262.84432578 C86.53838466 262.82271908 77.84703888 262.81262264 69.15563232 262.81128526 C63.96313136 262.81023652 58.77074458 262.80431409 53.57827187 262.78646564 C48.69371566 262.77000245 43.80935965 262.76782096 38.92478561 262.77660465 C37.13252159 262.77737596 35.34024687 262.77301998 33.54800987 262.7631464 C31.09994525 262.75045132 28.6525923 262.75629015 26.20453262 262.7667284 C25.14240674 262.75464379 25.14240674 262.75464379 24.05882376 262.74231505 C19.46356395 262.78809351 16.30461576 263.70739426 12.40394974 266.13422108 Z " fill="#000000" transform="translate(31.596050262451172,-0.13422107696533203)"/>
<path d="M0 0 C161.04 0 322.08 0 488 0 C488 42 488 42 484 49 C478.97024053 53.66172829 475.03187932 54.14760827 468.40394974 54.13422108 C467.61917999 54.13657331 466.83441024 54.13892554 466.02585959 54.14134905 C463.37426135 54.14805015 460.72271198 54.14758049 458.07110596 54.14717102 C456.15959751 54.15046895 454.24808976 54.15419436 452.3365829 54.1583125 C447.06654395 54.16834859 441.79651639 54.17205187 436.52646923 54.17470181 C430.84943849 54.17860005 425.17241681 54.18817866 419.49539185 54.19691467 C405.77754438 54.21669181 392.05969616 54.22674649 378.341838 54.23564246 C371.88638709 54.24002298 365.43093701 54.24539037 358.97548676 54.25063133 C337.52433535 54.26764422 316.07318527 54.28216445 294.62202835 54.28938007 C293.23454823 54.28985483 291.8470681 54.29033072 290.45958798 54.29080774 C289.42748042 54.2911623 289.42748042 54.2911623 288.3745222 54.29152403 C284.88835334 54.29272524 281.40218448 54.29394068 277.91601562 54.29516602 C276.87825107 54.29552624 276.87825107 54.29552624 275.81952157 54.29589374 C253.38363429 54.3037883 230.94779986 54.32722336 208.51193566 54.35972196 C184.79725254 54.39401031 161.08260971 54.41372911 137.36789966 54.41702431 C124.43834047 54.41919218 111.50885894 54.4279813 98.57932281 54.45348549 C87.57058498 54.47515031 76.56194366 54.48326369 65.55318692 54.47351871 C59.93413404 54.46896188 54.3152805 54.47094046 48.69625473 54.49028015 C43.55418544 54.5078258 38.41246217 54.50698424 33.27038965 54.49138286 C31.40831716 54.48899368 29.54622124 54.49339771 27.6841847 54.50521151 C25.1555055 54.52026352 22.62806301 54.51070496 20.09941483 54.49498463 C19.37424518 54.50520683 18.64907553 54.51542904 17.90193105 54.52596101 C12.43372864 54.45162181 9.41682496 52.99290902 5 50 C-7.49397151 36.51966232 0 19.54263214 0 0 Z M225.2265625 15.12109375 C221.35824056 21.04677163 221.14996348 27.11917805 222 34 C224.29728169 40.42170369 229.28703499 44.54592701 235 48 C240.72304947 49.90768316 247.70320215 50.18578374 253.421875 48.12890625 C258.89256773 44.89526036 263.96820331 40.09539007 266 34 C266.68937595 26.80094543 266.94077598 20.61665103 262.49609375 14.6484375 C258.45351382 10.19421105 254.19114526 6.36301388 248.046875 5.6640625 C237.78302872 5.54245295 231.84555603 7.15241718 225.2265625 15.12109375 Z " fill="#000000" transform="translate(12,315)"/>
<path d="M0 0 C22.44 0 44.88 0 68 0 C68.33 10.56 68.66 21.12 69 32 C70.38637384 36.92899926 70.38637384 36.92899926 73.16418457 38.2973175 C76.65077417 39.16125437 79.77806194 39.24684198 83.37304688 39.24291992 C84.45937157 39.24576744 84.45937157 39.24576744 85.56764221 39.24867249 C87.95145644 39.25236429 90.33496304 39.24169824 92.71875 39.23046875 C94.38114384 39.22927583 96.04353837 39.22882402 97.70593262 39.2290802 C101.18599685 39.22751804 104.66595783 39.21924919 108.14599609 39.20581055 C112.60137459 39.18882121 117.05663972 39.18499642 121.51204681 39.18575573 C124.94359413 39.18548348 128.37511678 39.17999342 131.80665588 39.17275429 C133.44926263 39.1695777 135.09187216 39.16760258 136.73448181 39.16686058 C139.0320204 39.16468628 141.32944019 39.15591857 143.62695312 39.14526367 C144.93313599 39.14145187 146.23931885 39.13764008 147.58508301 39.13371277 C150.52794286 39.01848363 153.14499321 38.68732515 156 38 C160.01801499 25.94595504 158.60312877 12.69987944 159 0 C181.11 0 203.22 0 226 0 C227.815 9.44625 229.63 18.8925 231.5 28.625 C232.36141602 33.08507568 232.36141602 33.08507568 233.24023438 37.63525391 C233.69184383 39.99893988 234.14304348 42.36270419 234.59375 44.7265625 C234.83125977 45.94819092 235.06876953 47.16981934 235.31347656 48.4284668 C235.53680664 49.60530029 235.76013672 50.78213379 235.99023438 51.99462891 C236.18564819 53.01166901 236.38106201 54.02870911 236.58239746 55.0765686 C237 58 237 58 237 64 C155.16 64 73.32 64 -11 64 C-9.875 51.625 -9.875 51.625 -8.96850586 46.88598633 C-8.76559937 45.81127075 -8.56269287 44.73655518 -8.3536377 43.62927246 C-8.14283569 42.54118286 -7.93203369 41.45309326 -7.71484375 40.33203125 C-7.5192688 39.30122437 -7.32369385 38.27041748 -7.12219238 37.20837402 C-6.39969573 33.40865455 -5.66808124 29.61067332 -4.9375 25.8125 C-3.308125 17.294375 -1.67875 8.77625 0 0 Z " fill="#000000" transform="translate(143,448)"/>
<path d="M0 0 C15.56291213 11.88265625 27.07557339 29.53767125 30.15234375 49.0546875 C31.51718519 67.01414926 29.88638083 81.62068754 22.15234375 97.8671875 C21.65444336 98.9193042 21.65444336 98.9193042 21.14648438 99.99267578 C18.74042823 104.7279739 18.74042823 104.7279739 16.11328125 106.1875 C13.40526079 106.00408826 12.65369833 105.05721927 10.77734375 103.1171875 C-4.34645337 89.03350282 -26.51877408 82.07562353 -46.84765625 82.0546875 C-67.1369565 82.83702718 -87.34169478 88.82245534 -102.76171875 102.453125 C-104.85879811 104.06324211 -106.26442523 104.64557851 -108.84765625 105.0546875 C-121.98783383 88.27999272 -123.84107633 67.19880432 -121.57958984 46.61474609 C-118.54349977 28.32520209 -106.32384481 11.12119529 -91.84765625 0.0546875 C-63.27020646 -19.03356178 -28.50565791 -19.47300088 0 0 Z M-71.84765625 17.0546875 C-77.84390556 25.76999974 -78.65760412 33.56007719 -77.84765625 44.0546875 C-75.63830888 53.03847953 -69.36119431 59.72865881 -61.66015625 64.4921875 C-53.80109386 69.03435427 -44.90660044 69.3106031 -36.05859375 67.4765625 C-27.80417131 64.59406577 -20.28656784 58.50916433 -16.28515625 50.6796875 C-12.99530599 42.38354336 -12.29463858 33.29601675 -15.34765625 24.7421875 C-19.42747886 16.03856593 -26.01542988 9.77351966 -34.84765625 6.0546875 C-48.87562179 1.46748358 -62.39534824 6.44647594 -71.84765625 17.0546875 Z " fill="#000000" transform="translate(188.84765625,48.9453125)"/>
<path d="M0 0 C1.8940076 2.64224789 3.24228459 5.50280574 4.625 8.4375 C5.38109859 10.00206212 6.14386029 11.56342617 6.9140625 13.12109375 C7.4083374 14.16414673 7.4083374 14.16414673 7.91259766 15.22827148 C9.02605717 17.31996938 9.02605717 17.31996938 12 19 C13.8909342 18.8009543 15.78215565 18.59023141 17.66015625 18.29296875 C21.7695093 17.77844207 25.86394711 17.94255482 30 18 C30 23.94 30 29.88 30 36 C27.7725 36.53625 25.545 37.0725 23.25 37.625 C7.33520092 41.75317722 -5.80676946 50.19108109 -15 64 C-24.31335402 79.93369001 -28.16915447 97.09839448 -23.4375 115.25 C-17.8850849 131.94580374 -8.76268212 146.35594851 7 155 C14.48058058 158.45399646 21.88350262 160.66744073 30 162 C30 167.94 30 173.88 30 180 C27.49348958 180.16276042 24.98697917 180.32552083 22.48046875 180.48828125 C19.55831564 181.09111914 18.88405984 181.7451814 17 184 C15.96717582 186.10109238 15.96717582 186.10109238 15.17578125 188.44921875 C14.71655273 189.72055664 14.71655273 189.72055664 14.24804688 191.01757812 C13.93931641 191.89865234 13.63058594 192.77972656 13.3125 193.6875 C12.99216797 194.58017578 12.67183594 195.47285156 12.34179688 196.39257812 C11.55360039 198.59246981 10.77334105 200.79485146 10 203 C5.85045482 202.47686272 2.0073935 201.83338539 -1.9375 200.4375 C-2.70964844 200.16808594 -3.48179687 199.89867187 -4.27734375 199.62109375 C-5.13005859 199.31365234 -5.13005859 199.31365234 -6 199 C-5.57112305 192.85276371 -3.40736395 187.81307782 -0.9609375 182.18359375 C0.17642491 178.41550284 0.39468306 176.69639775 -1 173 C-3.27077561 170.72424294 -5.84409484 168.98568231 -8.5 167.1875 C-15.95846097 161.87396672 -23.36503688 156.48148318 -28.25 148.5625 C-30.32887818 145.51842839 -31.48966628 144.96292173 -35 144 C-37.45234689 144.46849216 -37.45234689 144.46849216 -39.8125 145.625 C-40.67746094 146.00398437 -41.54242188 146.38296875 -42.43359375 146.7734375 C-45.40315638 148.19268052 -48.33083005 149.67237407 -51.2109375 151.265625 C-53 152 -53 152 -57 152 C-58.00732399 150.06629769 -59.00563288 148.12789694 -60 146.1875 C-60.556875 145.10855469 -61.11375 144.02960938 -61.6875 142.91796875 C-63 140 -63 140 -63 137 C-62.4652002 136.7733667 -61.93040039 136.5467334 -61.37939453 136.31323242 C-58.9571861 135.28059564 -56.54114092 134.23424997 -54.125 133.1875 C-53.28324219 132.83107422 -52.44148438 132.47464844 -51.57421875 132.10742188 C-50.76855469 131.75615234 -49.96289062 131.40488281 -49.1328125 131.04296875 C-48.38918457 130.72352295 -47.64555664 130.40407715 -46.87939453 130.07495117 C-44.67853504 129.0018909 -44.67853504 129.0018909 -43 126 C-42.66986943 121.37817206 -43.06505801 117.4027905 -44 112.875 C-45.79575023 103.69247578 -45.39758861 94.32082625 -44.12109375 85.0859375 C-43.9854853 82.74997257 -44.09223662 81.16466652 -45 79 C-46.639079 78.03125363 -46.639079 78.03125363 -48.75 77.5625 C-52.94670025 76.34213482 -56.98803089 74.89775793 -61.0625 73.3125 C-62.18785156 72.87550781 -63.31320312 72.43851562 -64.47265625 71.98828125 C-65.30667969 71.66214844 -66.14070313 71.33601563 -67 71 C-66.43267729 66.92722012 -65.52536141 63.41537885 -63.9375 59.625 C-63.39416016 58.31402344 -63.39416016 58.31402344 -62.83984375 56.9765625 C-62.42412109 55.99816406 -62.42412109 55.99816406 -62 55 C-56.04663291 55.40591139 -51.35921419 57.43915557 -45.96484375 59.94140625 C-42.66388358 61.12000995 -40.47388261 61.48549513 -37 61 C-33.86859188 58.57371392 -32.13444419 55.7543819 -30.25 52.3125 C-25.5924438 44.35828563 -19.85500727 37.87010451 -12 33 C-11.34 33 -10.68 33 -10 33 C-7.73607247 28.60531716 -8.00748265 25.78889623 -9 21 C-10.12091985 18.4947307 -11.25276268 16.14643026 -12.5625 13.75 C-16 7.37279843 -16 7.37279843 -16 4 C-14.27921959 3.1290621 -12.54793677 2.27885442 -10.8125 1.4375 C-9.84957031 0.96183594 -8.88664062 0.48617187 -7.89453125 -0.00390625 C-4.50738601 -1.16952303 -3.24215818 -1.57670172 0 0 Z " fill="#000000" transform="translate(470,49)"/>
<path d="M0 0 C19.47 0 38.94 0 59 0 C59 28.71 59 57.42 59 87 C39.53 87 20.06 87 0 87 C0 58.29 0 29.58 0 0 Z " fill="#000000" transform="translate(227,385)"/>
<path d="M0 0 C0 32.01 0 64.02 0 97 C-12.79324677 95.40084415 -21.04377115 90.06838198 -30 81 C-30.87978516 80.15308594 -30.87978516 80.15308594 -31.77734375 79.2890625 C-37.87224286 72.93051635 -41.51440594 63.74069307 -42 55 C-42.05027344 54.278125 -42.10054688 53.55625 -42.15234375 52.8125 C-42.69191587 39.34477982 -38.47384848 26.89740074 -29.6875 16.75 C-22.09889139 8.77510753 -11.51071871 0 0 0 Z " fill="#000000" transform="translate(500,100)"/>
<path d="M0 0 C1.82023172 1.58267062 3.55434392 3.17788669 5.21484375 4.92578125 C1.16897327 14.40054936 -10.78191848 19.17682921 -19.78515625 22.92578125 C-38.12064005 30.1078832 -59.49328279 28.9378047 -77.453125 21.3828125 C-84.75607169 18.05746755 -92.37718788 13.9692482 -97.78515625 7.92578125 C-97.78515625 3.92578125 -97.78515625 3.92578125 -96.125 2.03125 C-69.02223427 -19.60689305 -28.08636498 -20.91705442 0 0 Z " fill="#000000" transform="translate(189.78515625,160.07421875)"/>
<path d="M0 0 C14.85 0 29.7 0 45 0 C45 14.85 45 29.7 45 45 C30.15 45 15.3 45 0 45 C0 30.15 0 15.3 0 0 Z " fill="#000000" transform="translate(286,193)"/>
<path d="M0 0 C14.85 0 29.7 0 45 0 C45 14.85 45 29.7 45 45 C30.15 45 15.3 45 0 45 C0 30.15 0 15.3 0 0 Z " fill="#000000" transform="translate(286,52)"/>
<path d="M0 0 C4.94122857 4.8145304 6.7000125 7.91661632 6.9375 14.875 C6.76253993 20.17809991 6.20181432 23.40720923 2.4375 27.375 C-3.02660718 32.18861823 -6.32585742 32.73449572 -13.51171875 32.6484375 C-18.04301768 32.24230315 -20.01809207 31.25483145 -23.5625 28.375 C-27.74303936 23.22972079 -28.19578516 18.81461713 -27.94140625 12.25 C-27.19161951 6.56089649 -25.09150487 3.64374873 -20.625 -0.0625 C-14.3308544 -3.2095728 -6.26003834 -2.85545608 0 0 Z " fill="#000000" transform="translate(153.5625,70.625)"/>
<path d="M0 0 C1.94140625 0.34375 1.94140625 0.34375 4.44140625 1.90625 C6.52533443 5.29263329 6.49942722 7.43760318 5.94140625 11.34375 C4.44140625 13.78125 4.44140625 13.78125 1.94140625 15.34375 C-0.96673107 15.8586717 -3.04026483 15.67911988 -6.05859375 15.34375 C-8.259254 13.75188918 -8.96057371 12.87421141 -9.45703125 10.1875 C-9.44929687 9.4140625 -9.4415625 8.640625 -9.43359375 7.84375 C-9.44132813 7.0703125 -9.4490625 6.296875 -9.45703125 5.5 C-8.48365705 0.23232787 -4.91668825 -0.21731219 0 0 Z " fill="#000000" transform="translate(258.05859375,334.65625)"/>
</svg>
